<svg width="655" height="553" viewBox="0 0 655 553" fill="none" xmlns="http://www.w3.org/2000/svg">
<g clip-path="url(#clip0_4_728)">
<path d="M197.576 478.434H199.108V299.407C199.107 298.678 199.258 297.958 199.552 297.299C199.845 296.641 200.272 296.06 200.802 295.601L199.835 294.332C199.128 294.945 198.558 295.719 198.167 296.597C197.777 297.475 197.575 298.435 197.576 299.407V478.434Z" fill="#3F3D56"/>
<path d="M353.597 19.0054C353.201 19.9712 352.905 20.9808 352.716 22.0158C353.145 20.437 353.482 19.3653 353.597 19.0054Z" fill="#3F3D56"/>
<path d="M340.012 69.0204C340.012 69.0204 340.012 70.1493 341.153 74.2231L340.012 69.0204Z" fill="#3F3D56"/>
<path d="M200.184 239.427C230.303 256.197 269.704 270.676 281.505 274.873C272.506 272.369 246.316 268.999 205.736 296.044C154.75 330.017 100.232 307.365 100.232 307.365C100.232 307.365 112.347 332.176 138.093 333.788C163.84 335.408 230.977 290.113 253.691 303.054C276.412 315.996 287.011 299.815 296.101 332.176C305.183 364.53 321.839 452.96 302.656 502.574L283.48 552.18H392.515C392.515 552.18 353.137 440.019 374.848 371.001C387.001 332.348 404.063 304.355 410.427 290.129C413.62 283.004 414.126 279.339 409.99 279.519C407.639 279.625 403.787 280.975 398.067 283.642C398.067 283.642 424.318 256.139 432.895 256.139C441.48 256.139 481.868 251.828 494.986 237.267C494.986 237.267 513.664 223.246 546.984 257.759C580.304 292.272 572.225 292.272 602.007 289.573C631.321 286.914 654.288 271.723 655 271.249C654.15 271.617 619.911 286.235 598.982 278.791C577.777 271.241 559.604 242.658 540.927 232.956C522.249 223.246 511.145 210.305 485.904 224.326L502.537 182.434L507.094 170.957L507.101 170.941C507.101 170.941 512.661 92.2124 523.26 86.8215C533.858 81.4224 527.295 67.4094 546.984 64.7099C546.984 64.7099 522.754 61.4704 518.213 79.271C513.664 97.0633 482.366 193.052 482.366 193.052C482.366 193.052 463.19 234.028 441.985 224.326C420.78 214.616 450.065 160.159 450.065 160.159L486.409 142.358C486.409 142.358 459.147 141.278 442.491 157.999C425.835 174.712 424.824 228.637 424.824 228.637C424.824 228.637 382.927 235.108 372.826 259.379C372.826 259.379 366.263 237.807 378.884 224.866C382.039 221.626 385.354 215.998 388.548 209.38C400.653 183.979 405.028 155.173 401.061 126.987C399.185 113.195 398.029 99.7056 400.089 96.5234C404.63 89.5128 423.813 46.3776 425.329 35.0477C426.838 23.726 423.813 0.00283813 423.813 0.00283813C423.813 0.00283813 423.308 29.1169 417.25 38.2871C411.193 47.4574 394.031 92.7523 394.031 92.7523C394.031 92.7523 394.031 149.909 379.894 177.951C365.758 205.994 338.503 237.267 340.012 257.759V269.621C340.012 269.621 309.724 238.887 311.746 228.637C313.768 218.395 316.287 194.124 335.47 179.571C354.654 165.01 367.274 141.818 353.643 108.385C345.977 89.5783 342.623 79.4755 341.153 74.2318L349.102 110.545C349.102 110.545 354.148 147.749 340.012 160.691C339.973 160.723 339.943 160.756 339.904 160.789C325.791 173.746 307.205 197.363 307.205 197.363L307.258 196.324L311.241 119.715L310.368 121.76L304.073 136.501L298.115 150.449C298.115 150.449 269.849 111.624 236.529 98.6831C203.217 85.7417 182.517 40.4468 182.517 40.4468L154.244 16.7154L177.471 46.3776C177.471 46.3776 184.539 81.4224 224.414 106.234C264.297 131.037 290.036 167.701 291.552 190.353C293.068 213.004 294.584 232.956 294.584 232.956C294.584 232.956 219.873 230.257 203.217 195.204C186.553 160.159 172.922 158.539 172.922 158.539L182.517 188.733L193.116 214.616C193.116 214.616 149.703 215.696 126.989 243.198C104.268 270.701 47.7368 278.791 47.7368 278.791L79.5328 287.953C79.5328 287.953 109.828 277.171 138.599 257.219C167.37 237.267 164.345 219.475 200.184 239.427Z" fill="#3F3D56"/>
<path opacity="0.1" d="M184.087 165.852C187.281 180.953 191.041 195.539 196.325 206.656C212.981 241.709 287.692 244.408 287.692 244.408C287.692 244.408 287.34 239.778 286.804 232.473C267.835 230.804 215.983 223.679 202.451 195.203C201.211 192.602 200.062 189.804 198.974 186.859L184.087 165.852Z" fill="black"/>
<path opacity="0.1" d="M300.313 208.815C300.313 208.815 318.99 185.084 333.119 172.143C336.221 169.312 338.396 165.304 339.904 160.788C340.027 160.428 340.142 160.06 340.257 159.692C339.927 160.036 339.598 160.371 339.246 160.69C326.878 172.02 311.018 191.62 307.258 196.324C306.73 196.995 306.439 197.363 306.439 197.363L310.368 121.759L304.073 136.501L300.313 208.815Z" fill="black"/>
<path opacity="0.1" d="M289.501 140.728C289.611 154.004 291.224 161.901 291.224 161.901C291.224 161.901 262.967 123.092 229.659 110.142C227.69 108.812 225.693 107.502 223.649 106.23C183.77 81.4253 176.702 46.3747 176.702 46.3747L153.481 16.7165L181.75 40.443C181.75 40.443 202.447 85.7392 235.764 98.681C258.475 107.503 278.836 128.347 289.501 140.728Z" fill="black"/>
<path opacity="0.1" d="M333.123 269.209V281.073C333.123 281.073 302.834 250.336 304.854 240.09C306.398 232.255 308.247 216.223 317.607 202.6C313.388 212.895 312.104 222.937 310.98 228.638C309.532 235.985 324.697 253.868 333.393 263.399C333.088 265.317 332.997 267.268 333.123 269.209Z" fill="black"/>
<path opacity="0.1" d="M373.751 187.797C373.512 188.344 373.264 188.882 373.002 189.402C365.261 204.759 353.591 221.083 344.859 236.077C351.916 221.228 364.197 204.248 373.751 187.797Z" fill="black"/>
<path opacity="0.1" d="M204.971 296.043C221.577 284.978 235.771 279.007 247.366 275.982C259.528 280.872 269.539 284.518 274.576 286.309C265.542 283.811 239.371 280.493 198.845 307.496C167.049 328.682 133.88 327.847 113.416 324.217C107.756 319.656 103.013 313.926 99.4675 307.367C99.4675 307.367 153.986 330.015 204.971 296.043Z" fill="black"/>
<path opacity="0.1" d="M349.141 164.84C353.212 154.186 353.883 141.507 349.206 126.651C349.264 121.267 348.974 115.885 348.336 110.544L340.387 74.2223C341.852 79.4603 345.205 89.5652 352.879 108.387C362.593 132.215 358.967 150.835 349.141 164.84Z" fill="black"/>
<path opacity="0.1" d="M126.222 243.197C141.976 224.125 167.679 217.762 181.958 215.653L186.225 226.07C186.225 226.07 142.812 227.149 120.096 254.65C107.499 269.901 84.5035 279.179 66.514 284.421L46.9679 278.787C46.9679 278.787 103.506 270.699 126.222 243.197Z" fill="black"/>
<path opacity="0.1" d="M435.093 235.777C413.891 226.07 443.17 171.607 443.17 171.607L443.971 171.215C436.671 187.666 426.085 217.395 441.219 224.324C455.381 230.807 468.64 214.678 475.885 203.25C475.622 204.058 475.477 204.501 475.477 204.501C475.477 204.501 456.295 245.483 435.093 235.777Z" fill="black"/>
<path opacity="0.1" d="M365.935 270.827C365.935 270.827 359.546 249.791 371.548 236.804C368.605 247.992 372.061 259.375 372.061 259.375C379.871 240.603 406.708 232.482 418.463 229.766C418.007 236.016 417.93 240.09 417.93 240.09C417.93 240.09 376.031 246.561 365.935 270.827Z" fill="black"/>
<path opacity="0.1" d="M340.387 74.2223C339.249 70.1563 339.249 69.0228 339.249 69.0228L340.387 74.2223Z" fill="black"/>
<path opacity="0.1" d="M592.393 290.343C592.291 290.308 592.188 290.276 592.087 290.24C570.885 282.69 552.712 254.111 534.034 244.404C515.357 234.698 504.251 221.756 479.011 235.777C479.011 235.777 483.427 216.469 491.984 203.784C489.149 210.406 486.859 217.279 485.137 224.324C510.378 210.304 521.483 223.246 540.161 232.952C558.839 242.658 577.012 271.238 598.213 278.787C619.415 286.337 654.246 271.238 654.246 271.238C654.246 271.238 631.026 286.876 601.242 289.572C597.835 289.88 594.928 290.153 592.393 290.343Z" fill="black"/>
<path opacity="0.1" d="M500.209 182.393C500.209 182.393 501.036 182.409 502.537 182.434L507.094 170.956C506.596 170.948 506.335 170.94 506.335 170.94C506.335 170.94 509.843 121.285 516.597 98.1426C516.513 98.1835 516.444 98.2326 516.367 98.2735C505.769 103.664 500.209 182.393 500.209 182.393Z" fill="black"/>
<path opacity="0.1" d="M381.935 552.182C372.685 521.894 350.441 438.138 367.954 382.45C375.517 358.4 382.527 343.065 388.454 333.281C384.022 342.543 379.176 354.793 374.08 370.997C352.374 440.02 391.749 552.182 391.749 552.182H381.935Z" fill="black"/>
<path opacity="0.1" d="M391.175 295.094C397.266 292.233 403.785 290.552 410.427 290.129C413.62 283.003 414.126 279.339 409.99 279.519C408.842 279.739 407.685 280.001 406.537 280.304C398.419 287.503 391.175 295.094 391.175 295.094Z" fill="black"/>
<path opacity="0.1" d="M527.835 81.5829C527.259 82.6187 526.562 83.5714 525.759 84.4178C526.349 83.392 527.045 82.441 527.835 81.5829Z" fill="black"/>
<path opacity="0.1" d="M435.598 169.45C434.818 170.238 434.086 171.08 433.409 171.971C435.621 166.292 438.351 161.382 441.724 157.997C458.383 141.281 485.642 142.359 485.642 142.359L451.456 159.097C445.598 161.431 440.214 164.946 435.598 169.45Z" fill="black"/>
<path opacity="0.1" d="M399.321 96.524C397.261 99.7027 398.418 113.192 400.299 126.989C404.264 155.174 399.888 183.978 387.781 209.377C386.173 212.776 384.377 216.069 382.402 219.24C393.939 194.217 398.046 166.026 394.172 138.441C392.292 124.645 391.134 111.155 393.194 107.977C397.737 100.966 416.92 57.8272 418.434 46.5032C418.888 42.11 418.994 37.6837 418.751 33.2714C422.672 21.3865 423.046 0 423.046 0C423.046 0 426.075 23.7266 424.561 35.0506C423.046 46.3745 403.864 89.514 399.321 96.524Z" fill="black"/>
<path opacity="0.1" d="M351.962 21.976C352.165 20.9102 352.472 19.8703 352.879 18.8734C352.879 18.8734 352.491 20.0372 351.962 21.976Z" fill="black"/>
<path opacity="0.1" d="M530.261 76.2846C525.812 76.8664 520.695 78.3245 516.791 81.7062C517.046 80.7862 517.268 79.9614 517.445 79.2684C521.988 61.4735 546.218 64.7089 546.218 64.7089C535.268 66.2085 532.44 71.2116 530.261 76.2846Z" fill="black"/>
<path d="M54.2199 524.477C61.7484 536.81 59.6856 552.496 59.6856 552.496C59.6856 552.496 45.4166 548.186 37.888 535.853C30.3595 523.52 32.4223 507.834 32.4223 507.834C32.4223 507.834 46.6913 512.144 54.2199 524.477Z" fill="#3F3D56"/>
<path d="M48.5647 526.657C49.1597 541.367 59.3817 552.842 59.3817 552.842C59.3817 552.842 68.6389 540.468 68.0438 525.758C67.4487 511.048 57.2267 499.573 57.2267 499.573C57.2267 499.573 47.9696 511.947 48.5647 526.657Z" fill="#00BFA6"/>
<path d="M181.165 433.57C181.165 433.57 172.503 423.862 168.957 425.815C165.412 427.768 179.151 436.449 179.151 436.449L181.165 433.57Z" fill="#FFB9B9"/>
<path opacity="0.1" d="M181.165 433.57C181.165 433.57 172.503 423.862 168.957 425.815C165.412 427.768 179.151 436.449 179.151 436.449L181.165 433.57Z" fill="black"/>
<path d="M207.596 412.382C207.596 412.382 210.78 418.479 209.947 425.052C209.114 431.624 201.493 452.716 198.902 452.341C196.312 451.966 177.121 436.86 177.121 436.86L180.781 431.401L194.8 440.474C194.8 440.474 196.936 408.021 207.596 412.382Z" fill="#D0CDE1"/>
<path d="M155.612 427.224L177.467 440.048C177.594 440.138 177.738 440.197 177.888 440.222C178.039 440.246 178.192 440.235 178.338 440.189C178.484 440.143 178.619 440.063 178.733 439.956C178.847 439.848 178.937 439.715 178.998 439.566L184.352 427.612C184.453 427.271 184.437 426.902 184.305 426.573C184.174 426.245 183.936 425.977 183.636 425.82L165.49 415.829C165.267 415.685 165.001 415.635 164.745 415.687C164.489 415.739 164.26 415.891 164.102 416.112L155.038 425.234C154.949 425.404 154.893 425.591 154.873 425.785C154.854 425.978 154.872 426.174 154.925 426.36C154.979 426.547 155.068 426.719 155.186 426.868C155.304 427.016 155.449 427.138 155.612 427.224Z" fill="#2F2E41"/>
<path d="M157.071 425.458L177.56 437.968L183.012 427.471L165.436 417.26L157.071 425.458Z" fill="#00BFA6"/>
<path d="M174.262 421.842C174.156 421.706 174.158 421.516 174.266 421.419C174.375 421.322 174.55 421.354 174.657 421.491C174.763 421.627 174.761 421.817 174.652 421.914C174.544 422.011 174.369 421.979 174.262 421.842Z" fill="#F2F2F2"/>
<path d="M166.72 432.523C166.649 432.432 166.651 432.306 166.723 432.241C166.796 432.177 166.912 432.198 166.983 432.289C167.054 432.38 167.053 432.506 166.981 432.571C166.908 432.636 166.792 432.614 166.72 432.523Z" fill="#F2F2F2"/>
<path opacity="0.1" d="M207.596 412.382C207.596 412.382 210.78 418.479 209.947 425.052C209.114 431.624 201.493 452.716 198.902 452.341C196.312 451.966 177.121 436.86 177.121 436.86L180.781 431.401L194.8 440.474C194.8 440.474 196.936 408.021 207.596 412.382Z" fill="black"/>
<path d="M187.022 435.425C187.022 435.425 177.218 427.047 173.95 429.49C170.682 431.934 185.388 438.567 185.388 438.567L187.022 435.425Z" fill="#FFB9B9"/>
<path d="M200.094 401.912C194.86 401.912 190.617 397.379 190.617 391.788C190.617 386.197 194.86 381.664 200.094 381.664C205.328 381.664 209.571 386.197 209.571 391.788C209.571 397.379 205.328 401.912 200.094 401.912Z" fill="#FFB9B9"/>
<path d="M167.414 462.305C167.414 462.305 157.283 463.702 157.61 470.334C157.937 476.967 165.453 504.546 165.453 504.546L166.107 515.367C166.107 515.367 165.453 533.52 167.414 533.171C169.375 532.822 173.95 520.255 173.95 520.255C173.95 520.255 179.506 516.415 176.891 512.924C174.277 509.433 172.316 509.782 172.97 505.942C173.623 502.102 173.296 486.044 171.336 481.156C169.375 476.269 168.232 473.573 168.232 473.573L174.604 473.127L167.414 462.305Z" fill="#FFB9B9"/>
<path opacity="0.1" d="M167.414 462.305C167.414 462.305 157.283 463.702 157.61 470.334C157.937 476.967 165.453 504.546 165.453 504.546L166.107 515.367C166.107 515.367 165.453 533.52 167.414 533.171C169.375 532.822 173.95 520.255 173.95 520.255C173.95 520.255 179.506 516.415 176.891 512.924C174.277 509.433 172.316 509.782 172.97 505.942C173.623 502.102 173.296 486.044 171.336 481.156C169.375 476.269 168.232 473.573 168.232 473.573L174.604 473.127L167.414 462.305Z" fill="black"/>
<path d="M166.76 464.051C166.76 464.051 156.956 466.494 155.976 473.476C154.996 480.458 150.094 501.055 150.094 501.055L144.865 513.971C144.865 513.971 136.695 529.68 140.29 529.331C143.884 528.982 148.786 521.302 150.42 521.302C152.054 521.302 156.956 519.207 156.629 517.811C156.303 516.415 154.015 512.226 154.015 512.226L161.922 497.513C163.448 494.673 164.602 491.623 165.351 488.447C166.163 485.001 167.087 480.78 167.087 479.411C167.087 476.967 173.623 475.92 173.623 475.92L166.76 464.051Z" fill="#FFB9B9"/>
<path d="M198.787 441.709L194.211 455.672C194.211 455.672 187.022 457.767 181.793 459.512C176.564 461.258 166.76 458.814 165.78 463.003C164.799 467.192 167.741 474.523 170.682 476.269C173.623 478.014 175.257 479.76 184.734 476.967C194.211 474.174 216.761 473.476 216.761 473.476C218.947 474.877 221.408 475.714 223.95 475.92C228.199 476.269 229.179 476.618 230.486 475.571C231.794 474.523 229.833 474.523 229.179 471.731C228.525 468.938 228.199 469.985 225.257 466.843C222.316 463.702 220.029 454.276 218.395 451.134C216.761 447.992 215.78 441.709 215.78 441.709H198.787Z" fill="#2F2E41"/>
<path d="M199.44 400.166C200.627 401.093 201.599 402.299 202.279 403.692C202.959 405.084 203.33 406.625 203.362 408.196C203.362 413.432 213.166 402.61 213.166 402.61C213.166 402.61 207.937 395.628 207.937 393.534C207.937 391.439 199.44 400.166 199.44 400.166Z" fill="#FFB9B9"/>
<path d="M211.859 398.072C211.859 398.072 205.976 400.515 204.669 404.006C203.362 407.497 198.46 414.828 198.46 414.828C198.46 414.828 191.597 422.508 193.885 430.887C196.172 439.265 198.133 441.359 198.133 442.756C198.133 444.152 201.401 446.596 204.016 446.247C206.63 445.898 216.434 444.501 217.088 443.105C217.741 441.709 221.663 421.81 219.048 414.479C216.927 408.877 214.528 403.4 211.859 398.072Z" fill="#D0CDE1"/>
<path d="M197.345 392.249C195.224 392.786 193.143 391.343 191.405 389.912C190.419 389.099 189.333 387.94 189.635 386.633C189.903 385.472 191.183 384.815 191.369 383.635C191.498 382.816 191.05 382.019 191.014 381.188C191.046 380.555 191.24 379.944 191.576 379.421C191.911 378.898 192.375 378.484 192.916 378.224C193.949 377.629 195.121 377.382 196.183 376.85C197.804 376.037 199.151 374.573 200.882 374.104C203.247 373.463 205.656 374.828 208.087 375.004C209.559 375.111 211.049 374.78 212.505 375.038C213.893 375.337 215.146 376.128 216.063 377.281C216.979 378.435 217.505 379.884 217.557 381.396C217.575 382.508 217.367 383.747 217.988 384.628C218.233 384.932 218.513 385.202 218.82 385.432C220.982 387.3 221.964 390.421 222.075 393.428C222.13 394.908 221.84 396.666 220.611 397.295C219.953 397.535 219.257 397.639 218.563 397.599C218.213 397.583 217.866 397.659 217.551 397.82C217.235 397.98 216.962 398.221 216.754 398.521C216.194 399.576 217.033 401.134 216.3 402.055C215.75 402.746 214.677 402.517 214.035 401.928C213.393 401.338 212.992 400.491 212.383 399.861C211.198 398.635 209.441 398.413 207.818 398.227C207.336 398.223 206.868 398.059 206.479 397.758C206.184 397.427 205.992 397.007 205.929 396.555C205.715 395.515 205.713 394.438 205.921 393.396C206.024 393.074 206.037 392.727 205.959 392.396C205.851 392.162 205.685 391.963 205.479 391.823C204.473 391.015 202.71 389.84 201.402 390.062C199.951 390.309 198.809 391.878 197.345 392.249Z" fill="#2F2E41"/>
<path d="M210.552 410.639C210.552 410.639 214.473 416.225 214.473 422.857C214.473 429.49 209.571 451.483 206.957 451.483C204.342 451.483 183.427 439.265 183.427 439.265L186.368 433.33L201.401 440.312C201.401 440.312 199.44 407.846 210.552 410.639Z" fill="#D0CDE1"/>
<path d="M166.178 473.65H241.227V489.193H166.178V473.65Z" fill="#00BFA6"/>
<path d="M203.702 490.011C205.327 490.009 206.884 489.319 208.032 488.092C209.181 486.865 209.827 485.202 209.829 483.467V299.407C209.829 298.17 209.5 296.958 208.882 295.912C208.263 294.866 207.379 294.028 206.333 293.497C205.287 292.966 204.121 292.762 202.971 292.91C201.82 293.058 200.733 293.551 199.835 294.332L200.802 295.601C201.476 295.015 202.292 294.645 203.154 294.534C204.017 294.423 204.891 294.576 205.676 294.975C206.46 295.373 207.123 296.001 207.587 296.786C208.051 297.57 208.297 298.479 208.297 299.407V483.467C208.296 484.768 207.811 486.015 206.95 486.936C206.089 487.856 204.921 488.373 203.702 488.375V490.011Z" fill="#3F3D56"/>
<path d="M0 551.364H617.234V553H0V551.364Z" fill="#3F3D56"/>
<path d="M215.283 387.215C214.953 386.932 215.33 385.846 216.124 384.79C216.919 383.733 217.83 383.106 218.16 383.388C218.49 383.671 218.113 384.757 217.318 385.814C216.524 386.871 215.613 387.498 215.283 387.215Z" fill="#00BFA6"/>
<path d="M280.896 524.477C288.425 536.81 286.362 552.496 286.362 552.496C286.362 552.496 272.093 548.186 264.564 535.853C257.036 523.52 259.099 507.834 259.099 507.834C259.099 507.834 273.368 512.144 280.896 524.477Z" fill="#3F3D56"/>
<path d="M275.241 526.657C275.836 541.367 286.058 552.842 286.058 552.842C286.058 552.842 295.315 540.468 294.72 525.758C294.125 511.048 283.903 499.573 283.903 499.573C283.903 499.573 274.646 511.947 275.241 526.657Z" fill="#00BFA6"/>
<path d="M404.794 529.142C401.195 543.354 388.867 552.157 388.867 552.157C388.867 552.157 382.374 537.916 385.973 523.703C389.573 509.491 401.901 500.689 401.901 500.689C401.901 500.689 408.393 514.929 404.794 529.142Z" fill="#3F3D56"/>
<path d="M399.505 526.087C389.629 536.358 388.423 552.145 388.423 552.145C388.423 552.145 403.229 551.281 413.105 541.011C422.982 530.741 424.188 514.954 424.188 514.954C424.188 514.954 409.382 515.817 399.505 526.087Z" fill="#00BFA6"/>
<path d="M432.24 140.741C433.098 155.436 443.524 166.7 443.524 166.7C443.524 166.7 452.558 154.138 451.699 139.444C450.841 124.749 440.415 113.485 440.415 113.485C440.415 113.485 431.381 126.046 432.24 140.741Z" fill="#00BFA6"/>
<path d="M540.919 47.8431C529.26 55.6954 525.007 70.87 525.007 70.87C525.007 70.87 539.658 73.3136 551.317 65.4614C562.977 57.6091 567.229 42.4345 567.229 42.4345C567.229 42.4345 552.578 39.9909 540.919 47.8431Z" fill="#00BFA6"/>
<path d="M566.956 226.994C555.297 234.846 551.044 250.021 551.044 250.021C551.044 250.021 565.695 252.464 577.354 244.612C589.014 236.76 593.266 221.585 593.266 221.585C593.266 221.585 578.615 219.142 566.956 226.994Z" fill="#00BFA6"/>
<path d="M329.926 74.0336C333.442 88.2698 345.719 97.154 345.719 97.154C345.719 97.154 352.295 82.9566 348.778 68.7204C345.262 54.4842 332.986 45.6 332.986 45.6C332.986 45.6 326.41 59.7973 329.926 74.0336Z" fill="#00BFA6"/>
<path d="M219.011 85.1339C223.144 99.1799 235.794 107.444 235.794 107.444C235.794 107.444 241.744 92.9351 237.612 78.8891C233.479 64.8431 220.829 56.579 220.829 56.579C220.829 56.579 214.879 71.0879 219.011 85.1339Z" fill="#00BFA6"/>
<path d="M99.1299 241.459C106.616 253.822 120.87 258.187 120.87 258.187C120.87 258.187 122.987 242.51 115.501 230.147C108.015 217.785 93.7606 213.419 93.7606 213.419C93.7606 213.419 91.6439 229.097 99.1299 241.459Z" fill="#00BFA6"/>
</g>
<defs>
<clipPath id="clip0_4_728">
<rect width="655" height="553" fill="white" transform="matrix(-1 0 0 1 655 0)"/>
</clipPath>
</defs>
</svg>
