<svg xmlns="http://www.w3.org/2000/svg" viewBox="0 0 50 50" enableBackground="new 0 0 50 50" fill="#929292">
    <path style="text-indent:0;text-align:start;line-height:normal;text-transform:none;block-progression:tb;-inkscape-font-specification:Bitstream Vera Sans" d="M 26.8125 5 C 22.354563 5 19.099469 6.7600264 17.375 9.375 C 17.021471 9.9110891 16.752464 10.471424 16.53125 11.0625 L 16.28125 10.5625 A 1.0001 1.0001 0 0 0 15.40625 10 C 11.945833 10 9.3607071 11.40773 8 13.5 C 6.7583286 15.409237 6.6826555 17.813646 7.46875 20.0625 C 7.4063269 20.165819 7.2747122 20.219389 7.21875 20.34375 C 7.0311729 20.760588 6.9315947 21.290603 7 21.90625 A 1.0001 1.0001 0 0 0 7 21.9375 C 7.1139937 22.849449 7.3444167 23.500889 7.71875 24 C 7.8778254 24.212101 8.132388 24.211121 8.34375 24.34375 C 8.4914206 25.085362 8.7050648 25.824035 9 26.4375 C 9.1760339 26.803651 9.3636056 27.122678 9.5625 27.40625 C 9.630178 27.50274 9.7426458 27.568729 9.8125 27.65625 C 9.8114754 28.423324 9.7855886 29.108295 9.71875 30 C 9.537924 30.458754 9.1028157 30.859476 8.28125 31.28125 C 7.4408585 31.712688 6.3181567 32.109322 5.15625 32.625 C 3.9943433 33.140678 2.759338 33.764698 1.78125 34.78125 C 0.80316202 35.797802 0.11319774 37.220086 0 39.03125 A 1.0001 1.0001 0 0 0 1 40.09375 L 7.21875 40.09375 C 7.0652622 40.665802 6.9459857 41.277887 6.90625 41.9375 A 1.0001 1.0001 0 0 0 7.90625 43 L 42.09375 43 A 1.0001 1.0001 0 0 0 43.09375 41.9375 C 43.051727 41.23992 42.918658 40.599726 42.75 40 L 49 40 A 1.0001 1.0001 0 0 0 50 38.9375 C 49.886964 37.128925 49.186468 35.704704 48.21875 34.6875 C 47.251032 33.670296 46.055996 33.047329 44.90625 32.53125 C 43.756504 32.015171 42.64345 31.618415 41.8125 31.1875 C 41.018408 30.775699 40.596648 30.355982 40.40625 29.90625 C 40.3406 29.09627 40.31372 28.378194 40.3125 27.5625 C 40.3806 27.47666 40.496498 27.406883 40.5625 27.3125 C 40.760507 27.02935 40.922842 26.706929 41.09375 26.34375 C 41.37109 25.754402 41.572458 25.049661 41.6875 24.34375 C 41.889449 24.212997 42.128273 24.203969 42.28125 24 C 42.655583 23.500889 42.886006 22.849449 43 21.9375 C 43.06908 21.384842 43.0095 20.872711 42.84375 20.4375 C 42.79739 20.315814 42.6259 20.241908 42.5625 20.125 C 42.781384 19.612268 43.0322 19.129981 43.09375 18.5 C 43.18483 17.567759 43.1089 16.517616 42.84375 15.5 C 42.578597 14.482384 42.115719 13.468903 41.3125 12.6875 C 40.662974 12.055616 39.748554 11.682313 38.71875 11.53125 L 38.3125 10.59375 A 1.0001 1.0001 0 0 0 37.40625 10 C 36.024878 10 34.552109 10.13844 33.1875 10.5625 C 32.830481 9.7740025 32.362815 9.0249389 31.71875 8.40625 C 30.862722 7.5839488 29.662042 7.089389 28.28125 6.9375 L 27.71875 5.59375 A 1.0001 1.0001 0 0 0 26.8125 5 z M 26.15625 7.0625 L 26.6875 8.21875 A 1.0001 1.0001 0 0 0 27.59375 8.8125 C 28.837112 8.8125 29.68153 9.2076207 30.34375 9.84375 C 31.00597 10.479879 31.478717 11.387556 31.75 12.40625 C 32.021283 13.424944 32.092665 14.539337 32 15.46875 C 31.90733 16.398163 31.588496 17.147193 31.40625 17.375 A 1.0001 1.0001 0 0 0 31.78125 18.90625 C 31.766845 18.896752 31.782861 18.898694 31.8125 18.96875 C 31.86744 19.098611 31.927463 19.385009 31.90625 19.75 C 31.90155 19.78126 31.91115 19.78222 31.90625 19.8125 C 31.771078 20.640281 31.533212 21.132801 31.375 21.34375 C 31.293 21.453083 31.232625 21.488271 31.21875 21.5 A 1.0001 1.0001 0 0 0 30.3125 22.375 C 30.22956 23.121473 29.940157 24.095063 29.59375 24.84375 C 29.420546 25.218093 29.216193 25.535299 29.0625 25.75 C 28.94723 25.911026 28.828741 25.998625 28.84375 26 A 1.0001 1.0001 0 0 0 28.3125 26.90625 C 28.3125 28.20625 28.3043 29.251817 28.40625 30.78125 A 1.0001 1.0001 0 0 0 28.46875 31.0625 C 29.005156 32.470566 30.212592 33.3153 31.53125 33.96875 C 32.849908 34.6222 34.344323 35.109422 35.75 35.71875 C 37.155677 36.328078 38.462989 37.060922 39.40625 38.03125 C 40.135308 38.781228 40.582419 39.774032 40.84375 41 L 9.15625 41 C 9.4175814 39.774032 9.8646923 38.781228 10.59375 38.03125 C 11.537011 37.060922 12.844323 36.328078 14.25 35.71875 C 15.655677 35.109422 17.150092 34.6222 18.46875 33.96875 C 19.787408 33.3153 20.994844 32.470566 21.53125 31.0625 A 1.0001 1.0001 0 0 0 21.59375 30.78125 C 21.696402 29.34412 21.6875 28.20625 21.6875 26.90625 A 1.0001 1.0001 0 0 0 21.15625 26 C 21.157704 25.99864 21.146878 25.986632 21.125 25.96875 C 21.117018 25.965428 21.107416 25.974607 21.09375 25.96875 C 21.048351 25.931077 20.981283 25.847477 20.90625 25.75 C 20.744638 25.540022 20.52651 25.20927 20.34375 24.84375 C 19.97823 24.11271 19.676159 23.189137 19.59375 22.40625 A 1.0001 1.0001 0 0 0 18.78125 21.53125 C 18.68354 21.511708 18.172086 21.533364 18 19.8125 C 17.93018 19.044464 18.291354 18.816181 18.25 18.84375 A 1.0001 1.0001 0 0 0 18.625 17.59375 C 17.983239 16.123046 17.780791 14.600314 18 13.1875 A 1.0001 1.0001 0 0 0 18.21875 12.25 C 18.405338 11.629101 18.670628 11.046845 19.03125 10.5 C 20.275845 8.6127037 22.619557 7.2286585 26.15625 7.0625 z M 36.78125 12.09375 L 37.09375 12.78125 A 1.0001 1.0001 0 0 0 38 13.40625 C 38.891667 13.40625 39.443844 13.675153 39.90625 14.125 C 40.368656 14.574847 40.708903 15.242616 40.90625 16 C 41.103597 16.757384 41.162044 17.582241 41.09375 18.28125 C 41.02546 18.980259 40.7905 19.550167 40.6875 19.6875 A 1.0001 1.0001 0 0 0 40.96875 21.15625 C 41.00296 21.24604 41.03092 21.440158 41 21.6875 C 40.91399 22.375551 40.763167 22.711611 40.6875 22.8125 A 1.0001 1.0001 0 0 0 39.8125 23.71875 C 39.77564 24.234786 39.539434 24.951358 39.28125 25.5 C 39.152158 25.774321 39.020743 25.992525 38.90625 26.15625 C 38.82038 26.279044 38.741616 26.370662 38.75 26.375 A 1.0001 1.0001 0 0 0 38.3125 27.1875 C 38.3125 28.2875 38.30229 29.137714 38.40625 30.28125 A 1.0001 1.0001 0 0 0 38.46875 30.53125 C 38.895691 31.705338 39.85595 32.44029 40.875 32.96875 C 41.89405 33.49721 43.043496 33.872329 44.09375 34.34375 C 45.144004 34.815171 46.098968 35.376579 46.78125 36.09375 C 47.256767 36.593583 47.573532 37.225306 47.78125 38 L 42 38 A 1.0001 1.0001 0 0 0 41.90625 38 C 41.595178 37.487965 41.242024 37.034702 40.84375 36.625 C 39.608886 35.354703 38.069323 34.559422 36.5625 33.90625 C 35.055677 33.253078 33.571967 32.749675 32.4375 32.1875 C 31.344148 31.645699 30.69081 31.06515 30.40625 30.40625 C 30.33255 29.206166 30.31317 28.306741 30.3125 27.25 C 30.418141 27.129134 30.591122 27.040885 30.6875 26.90625 C 30.943182 26.549076 31.191954 26.150657 31.40625 25.6875 C 31.781702 24.876039 32.004579 23.928537 32.15625 23 C 32.429037 22.835913 32.757392 22.844311 32.96875 22.5625 C 33.40475 21.981167 33.707833 21.176949 33.875 20.0625 A 1.0001 1.0001 0 0 0 33.90625 20 C 33.96887 19.311228 33.87197 18.697387 33.65625 18.1875 C 33.60228 18.05994 33.416629 18.02573 33.34375 17.90625 C 33.668011 17.249139 33.883381 16.51249 33.96875 15.65625 C 34.068531 14.655456 34.035667 13.565774 33.8125 12.46875 C 34.711418 12.222993 35.76399 12.134362 36.78125 12.09375 z M 14.84375 12.125 L 15.21875 12.84375 A 1.0001 1.0001 0 0 0 15.96875 13.40625 C 15.837466 14.860696 16.06222 16.367394 16.59375 17.8125 C 16.214295 18.331683 15.911419 19.025607 16 20 C 16.174619 21.746189 16.955107 22.574184 17.71875 23.03125 C 17.880622 23.98901 18.166331 24.957662 18.5625 25.75 C 18.79224 26.20948 19.045987 26.622478 19.3125 26.96875 C 19.41193 27.097935 19.581148 27.167072 19.6875 27.28125 C 19.686652 28.338694 19.66624 29.288647 19.59375 30.40625 C 19.30919 31.06515 18.655852 31.645699 17.5625 32.1875 C 16.428033 32.749675 14.944323 33.253078 13.4375 33.90625 C 11.930677 34.559422 10.391114 35.354703 9.15625 36.625 C 8.7332175 37.060171 8.3550031 37.54301 8.03125 38.09375 A 1.0001 1.0001 0 0 0 8 38.09375 L 2.25 38.09375 C 2.459348 37.32175 2.7691488 36.687261 3.25 36.1875 C 3.940662 35.469677 4.9056567 34.909322 5.96875 34.4375 C 7.0318433 33.965678 8.1591415 33.590437 9.1875 33.0625 C 10.215858 32.534563 11.196535 31.83453 11.625 30.65625 A 1.0001 1.0001 0 0 0 11.6875 30.375 C 11.790555 29.138345 11.8125 28.3125 11.8125 27.3125 A 1.0001 1.0001 0 0 0 11.34375 26.4375 C 11.312238 26.402519 11.24585 26.333215 11.1875 26.25 C 11.070769 26.083572 10.917716 25.846349 10.78125 25.5625 C 10.508318 24.994801 10.26807 24.260524 10.1875 23.65625 A 1.0001 1.0001 0 0 0 9.3125 22.8125 C 9.2368333 22.711611 9.0860063 22.375551 9 21.6875 C 8.9684053 21.403147 9.0250771 21.239412 9.0625 21.15625 A 1.0001 1.0001 0 0 0 9.40625 19.90625 C 8.5770724 18.02969 8.7232071 16.07648 9.6875 14.59375 C 10.576122 13.227374 12.295229 12.280017 14.84375 12.125 z" overflow="visible" enable-background="accumulate" font-family="Bitstream Vera Sans"/>
</svg>